<svg width="499" height="500" viewBox="0 0 499 500" fill="none" xmlns="http://www.w3.org/2000/svg">
<rect width="499" height="500" fill="white"/>
<path d="M95.2344 43.7422C96.6406 43.8594 97.8711 43.9297 98.9258 43.9531C100.004 43.9766 100.918 43.9883 101.668 43.9883C102.535 43.9883 103.285 43.9648 103.918 43.918C104.574 43.8477 105.43 43.7539 106.484 43.6367C107.375 43.5195 108.523 43.3672 109.93 43.1797C111.336 42.9688 113.047 42.6992 115.062 42.3711C114.805 42.7695 114.582 43.1914 114.395 43.6367C114.23 44.0586 114.09 44.4453 113.973 44.7969C113.855 45.2188 113.75 45.6289 113.656 46.0273C113.586 46.4727 113.504 47.0234 113.41 47.6797C113.316 48.2422 113.199 48.957 113.059 49.8242C112.941 50.668 112.789 51.6758 112.602 52.8477C111.898 51.0195 111.184 49.6133 110.457 48.6289C109.754 47.6445 109.098 46.918 108.488 46.4492C107.785 45.9102 107.117 45.6055 106.484 45.5352C105.57 45.5352 104.82 45.7109 104.234 46.0625C103.648 46.4141 103.168 46.8711 102.793 47.4336C102.441 47.9727 102.172 48.5703 101.984 49.2266C101.797 49.8594 101.668 50.4805 101.598 51.0898C101.527 51.6758 101.48 52.2031 101.457 52.6719C101.434 53.1172 101.41 53.4219 101.387 53.5859C102.207 53.5391 102.898 53.4805 103.461 53.4102C104.023 53.3398 104.469 53.2695 104.797 53.1992C105.195 53.1055 105.512 53.0117 105.746 52.918C106.098 52.7305 106.449 52.5078 106.801 52.25C107.105 52.0156 107.422 51.7344 107.75 51.4062C108.102 51.0781 108.406 50.6797 108.664 50.2109C108.523 51.0547 108.395 51.7578 108.277 52.3203C108.184 52.8828 108.102 53.3281 108.031 53.6562C107.938 54.0547 107.879 54.3594 107.855 54.5703C107.809 54.7812 107.75 55.0742 107.68 55.4492C107.609 55.7773 107.527 56.1992 107.434 56.7148C107.34 57.2305 107.234 57.875 107.117 58.6484C106.836 58.1562 106.543 57.7578 106.238 57.4531C105.934 57.125 105.652 56.8672 105.395 56.6797C105.09 56.4688 104.797 56.3047 104.516 56.1875C104.211 56.0938 103.883 56 103.531 55.9062C103.227 55.8359 102.863 55.7656 102.441 55.6953C102.043 55.6016 101.609 55.5195 101.141 55.4492C101.188 56.7148 101.258 57.8047 101.352 58.7188C101.445 59.6094 101.527 60.3594 101.598 60.9688C101.691 61.6719 101.785 62.2578 101.879 62.7266C101.996 63.1953 102.184 63.6992 102.441 64.2383C102.652 64.707 102.945 65.2461 103.32 65.8555C103.719 66.4414 104.223 67.0742 104.832 67.7539C104.363 67.6367 103.871 67.5547 103.355 67.5078C102.84 67.4609 102.383 67.4258 101.984 67.4023C101.492 67.3789 101.023 67.3789 100.578 67.4023C100.109 67.4258 99.5938 67.4727 99.0312 67.543C98.5625 67.5898 98.0234 67.6602 97.4141 67.7539C96.8047 67.8477 96.1602 67.9531 95.4805 68.0703C95.8789 67.6719 96.207 67.2734 96.4648 66.875C96.7227 66.4766 96.9102 66.125 97.0273 65.8203C97.168 65.4688 97.2617 65.1289 97.3086 64.8008C97.332 64.5195 97.3438 63.9102 97.3438 62.9727C97.3438 62.0117 97.332 60.8984 97.3086 59.6328C97.2852 58.3438 97.25 56.9844 97.2031 55.5547C97.1562 54.125 97.1094 52.7891 97.0625 51.5469C97.0156 50.2812 96.957 49.2031 96.8867 48.3125C96.8398 47.4219 96.7812 46.8828 96.7109 46.6953C96.6172 46.4609 96.5117 46.1914 96.3945 45.8867C96.207 45.3945 95.8203 44.6797 95.2344 43.7422ZM120.898 52.25C121.508 52.25 122.141 52.3672 122.797 52.6016C123.453 52.8125 124.086 53.0938 124.695 53.4453C125.305 53.7734 125.855 54.1367 126.348 54.5352C126.863 54.9102 127.285 55.2734 127.613 55.625C128.199 56.2578 128.598 57.1133 128.809 58.1914C129.043 59.2461 129.09 60.3359 128.949 61.4609C128.809 62.5625 128.48 63.6055 127.965 64.5898C127.449 65.5742 126.734 66.3008 125.82 66.7695C125.164 67.0977 124.52 67.3555 123.887 67.543C123.254 67.7305 122.645 67.8711 122.059 67.9648C121.473 68.0586 120.922 68.1055 120.406 68.1055C119.891 68.1055 119.445 68.0938 119.07 68.0703C118.367 68.0234 117.629 67.7773 116.855 67.332C116.105 66.8867 115.391 66.3359 114.711 65.6797C114.055 65.0234 113.492 64.3086 113.023 63.5352C112.555 62.7383 112.273 61.9883 112.18 61.2852C112.039 60.3242 112.016 59.3164 112.109 58.2617C112.203 57.207 112.543 56.2344 113.129 55.3438C113.738 54.4531 114.652 53.7148 115.871 53.1289C117.113 52.543 118.789 52.25 120.898 52.25ZM119.738 65.8906C119.996 65.9375 120.348 65.8789 120.793 65.7148C121.238 65.5273 121.672 65.2344 122.094 64.8359C122.539 64.4375 122.926 63.9336 123.254 63.3242C123.605 62.6914 123.816 61.9297 123.887 61.0391C123.957 60.1719 123.957 59.375 123.887 58.6484C123.84 57.9219 123.734 57.2891 123.57 56.75C123.406 56.1875 123.219 55.7305 123.008 55.3789C122.797 55.0273 122.574 54.7812 122.34 54.6406C121.941 54.4297 121.461 54.2656 120.898 54.1484C120.336 54.0078 119.855 54.0312 119.457 54.2188C119.27 54.3125 119.035 54.5117 118.754 54.8164C118.473 55.1211 118.191 55.5078 117.91 55.9766C117.629 56.4219 117.371 56.9375 117.137 57.5234C116.926 58.1094 116.773 58.7188 116.68 59.3516C116.586 59.9844 116.562 60.6641 116.609 61.3906C116.68 62.1172 116.832 62.8086 117.066 63.4648C117.301 64.0977 117.629 64.6484 118.051 65.1172C118.496 65.5625 119.059 65.8203 119.738 65.8906ZM140.059 52.25C140.668 52.25 141.301 52.3672 141.957 52.6016C142.613 52.8125 143.246 53.0938 143.855 53.4453C144.465 53.7734 145.016 54.1367 145.508 54.5352C146.023 54.9102 146.445 55.2734 146.773 55.625C147.359 56.2578 147.758 57.1133 147.969 58.1914C148.203 59.2461 148.25 60.3359 148.109 61.4609C147.969 62.5625 147.641 63.6055 147.125 64.5898C146.609 65.5742 145.895 66.3008 144.98 66.7695C144.324 67.0977 143.68 67.3555 143.047 67.543C142.414 67.7305 141.805 67.8711 141.219 67.9648C140.633 68.0586 140.082 68.1055 139.566 68.1055C139.051 68.1055 138.605 68.0938 138.23 68.0703C137.527 68.0234 136.789 67.7773 136.016 67.332C135.266 66.8867 134.551 66.3359 133.871 65.6797C133.215 65.0234 132.652 64.3086 132.184 63.5352C131.715 62.7383 131.434 61.9883 131.34 61.2852C131.199 60.3242 131.176 59.3164 131.27 58.2617C131.363 57.207 131.703 56.2344 132.289 55.3438C132.898 54.4531 133.812 53.7148 135.031 53.1289C136.273 52.543 137.949 52.25 140.059 52.25ZM138.898 65.8906C139.156 65.9375 139.508 65.8789 139.953 65.7148C140.398 65.5273 140.832 65.2344 141.254 64.8359C141.699 64.4375 142.086 63.9336 142.414 63.3242C142.766 62.6914 142.977 61.9297 143.047 61.0391C143.117 60.1719 143.117 59.375 143.047 58.6484C143 57.9219 142.895 57.2891 142.73 56.75C142.566 56.1875 142.379 55.7305 142.168 55.3789C141.957 55.0273 141.734 54.7812 141.5 54.6406C141.102 54.4297 140.621 54.2656 140.059 54.1484C139.496 54.0078 139.016 54.0312 138.617 54.2188C138.43 54.3125 138.195 54.5117 137.914 54.8164C137.633 55.1211 137.352 55.5078 137.07 55.9766C136.789 56.4219 136.531 56.9375 136.297 57.5234C136.086 58.1094 135.934 58.7188 135.84 59.3516C135.746 59.9844 135.723 60.6641 135.77 61.3906C135.84 62.1172 135.992 62.8086 136.227 63.4648C136.461 64.0977 136.789 64.6484 137.211 65.1172C137.656 65.5625 138.219 65.8203 138.898 65.8906ZM167.059 41.0703C167.504 41.0938 167.984 41.1055 168.5 41.1055C168.945 41.1055 169.449 41.1172 170.012 41.1406C170.598 41.1406 171.207 41.1172 171.84 41.0703C171.277 41.3281 170.785 41.7031 170.363 42.1953C169.941 42.6875 169.602 43.1797 169.344 43.6719C169.016 44.2578 168.746 44.8672 168.535 45.5C168.418 45.875 168.324 46.543 168.254 47.5039C168.184 48.4414 168.125 49.543 168.078 50.8086C168.055 52.0742 168.043 53.4102 168.043 54.8164C168.043 56.2227 168.055 57.5703 168.078 58.8594C168.102 60.125 168.137 61.25 168.184 62.2344C168.23 63.2188 168.289 63.9102 168.359 64.3086C168.453 64.7773 168.57 65.2227 168.711 65.6445C168.828 66.0195 168.98 66.4062 169.168 66.8047C169.355 67.1797 169.59 67.4844 169.871 67.7188L166.285 69.3359C166.098 69.0781 165.945 68.8086 165.828 68.5273C165.711 68.2695 165.617 68.0352 165.547 67.8242C165.453 67.5664 165.395 67.332 165.371 67.1211C165.324 66.8398 165.277 66.5352 165.23 66.207C165.184 65.8555 165.125 65.5273 165.055 65.2227C165.008 64.8945 164.973 64.625 164.949 64.4141C164.926 64.2031 164.926 64.0742 164.949 64.0273C164.973 63.9805 164.832 64.1914 164.527 64.6602C164.223 65.1055 163.766 65.6328 163.156 66.2422C162.57 66.8281 161.844 67.4023 160.977 67.9648C160.109 68.5039 159.137 68.8438 158.059 68.9844C156.957 69.125 155.938 68.9141 155 68.3516C154.086 67.7891 153.301 67.0039 152.645 65.9961C151.988 64.9648 151.484 63.7812 151.133 62.4453C150.805 61.0859 150.676 59.7031 150.746 58.2969C150.793 57.3594 151.004 56.5273 151.379 55.8008C151.754 55.0508 152.223 54.4062 152.785 53.8672C153.371 53.3047 154.004 52.8359 154.684 52.4609C155.387 52.0625 156.066 51.7344 156.723 51.4766C157.402 51.2188 158.035 51.0312 158.621 50.9141C159.207 50.7969 159.676 50.7148 160.027 50.668C160.449 50.6445 160.93 50.7148 161.469 50.8789C161.938 51.0195 162.477 51.2539 163.086 51.582C163.719 51.9102 164.422 52.4023 165.195 53.0586C165.055 50.7148 164.926 48.8398 164.809 47.4336C164.691 46.0039 164.574 44.9141 164.457 44.1641C164.34 43.2734 164.234 42.6641 164.141 42.3359C164.023 42.1016 163.871 41.8672 163.684 41.6328C163.52 41.4453 163.309 41.2578 163.051 41.0703C162.816 40.8594 162.535 40.6953 162.207 40.5781C162.816 40.6953 163.402 40.7773 163.965 40.8242C164.527 40.8711 165.043 40.918 165.512 40.9648C166.051 41.0117 166.566 41.0469 167.059 41.0703ZM158.234 54.1836C157.789 54.3477 157.426 54.6289 157.145 55.0273C156.887 55.4258 156.676 55.9062 156.512 56.4688C156.348 57.0078 156.23 57.5938 156.16 58.2266C156.113 58.8359 156.078 59.4336 156.055 60.0195C156.055 60.582 156.055 61.0977 156.055 61.5664C156.055 62.0352 156.055 62.3867 156.055 62.6211C156.055 62.7617 156.078 63.0195 156.125 63.3945C156.195 63.7461 156.336 64.1211 156.547 64.5195C156.758 64.8945 157.051 65.2344 157.426 65.5391C157.824 65.8438 158.352 65.9961 159.008 65.9961C159.547 65.9492 160.121 65.7617 160.73 65.4336C161.27 65.1523 161.879 64.707 162.559 64.0977C163.262 63.4648 164.012 62.5625 164.809 61.3906C164.762 60.6406 164.727 60.0195 164.703 59.5273C164.703 59.0352 164.691 58.6367 164.668 58.332C164.645 57.9805 164.633 57.6992 164.633 57.4883V56.9609C164.633 56.8203 164.633 56.668 164.633 56.5039C164.633 56.3398 164.645 56.1875 164.668 56.0469C164.012 55.5781 163.426 55.1797 162.91 54.8516C162.418 54.5 161.926 54.2422 161.434 54.0781C160.965 53.8906 160.473 53.8086 159.957 53.832C159.465 53.832 158.891 53.9492 158.234 54.1836ZM171.102 52.2852L177.57 52.3555C177.195 53.7852 176.914 55.0039 176.727 56.0117C176.562 57.0195 176.457 57.8633 176.41 58.543C176.316 59.3164 176.293 59.9727 176.34 60.5117C176.41 61.0039 176.527 61.5312 176.691 62.0938C176.832 62.5625 177.043 63.1016 177.324 63.7109C177.605 64.3203 177.98 64.9297 178.449 65.5391C178.168 65.4453 177.863 65.375 177.535 65.3281C177.207 65.2812 176.902 65.2461 176.621 65.2227C176.293 65.1992 175.965 65.1992 175.637 65.2227C175.309 65.2461 174.945 65.2812 174.547 65.3281C174.219 65.375 173.82 65.4336 173.352 65.5039C172.883 65.5742 172.391 65.668 171.875 65.7852C172.227 64.7305 172.496 63.8164 172.684 63.043C172.895 62.2695 173.047 61.625 173.141 61.1094C173.234 60.5 173.293 60.0078 173.316 59.6328C173.316 59.1641 173.316 58.6367 173.316 58.0508C173.316 57.4414 173.316 56.8555 173.316 56.293C173.316 55.7305 173.305 55.2383 173.281 54.8164C173.258 54.3711 173.211 54.0898 173.141 53.9727L172.789 53.6211C172.648 53.5039 172.438 53.3398 172.156 53.1289C171.898 52.8945 171.547 52.6133 171.102 52.2852ZM173.598 46.8711C174.09 46.6133 174.582 46.543 175.074 46.6602C175.59 46.7773 175.988 47 176.27 47.3281C176.551 47.6562 176.645 48.043 176.551 48.4883C176.48 48.9336 176.105 49.3672 175.426 49.7891C174.746 50.1875 174.148 50.3281 173.633 50.2109C173.117 50.0938 172.754 49.8477 172.543 49.4727C172.332 49.0977 172.297 48.6641 172.438 48.1719C172.578 47.6562 172.965 47.2227 173.598 46.8711ZM188.855 62.3398C189.512 62.3398 190.121 62.2695 190.684 62.1289C191.152 62.0117 191.598 61.8242 192.02 61.5664C192.465 61.2852 192.758 60.875 192.898 60.3359C193.367 60.4297 193.766 60.5117 194.094 60.582C194.422 60.6289 194.703 60.6758 194.938 60.7227C195.195 60.793 195.418 60.8398 195.605 60.8633C195.793 60.9102 196.016 60.957 196.273 61.0039C196.508 61.0508 196.789 61.1094 197.117 61.1797C197.469 61.2266 197.879 61.2969 198.348 61.3906C197.996 61.3438 197.633 61.3789 197.258 61.4961C196.906 61.6133 196.566 61.7422 196.238 61.8828C195.863 62.0469 195.512 62.2461 195.184 62.4805C194.973 62.6211 194.727 62.832 194.445 63.1133C194.188 63.3945 193.812 63.6641 193.32 63.9219C192.828 64.1797 192.172 64.4023 191.352 64.5898C190.555 64.7539 189.523 64.8125 188.258 64.7656C186.734 64.7188 185.457 64.4492 184.426 63.957C183.395 63.4414 182.562 62.8203 181.93 62.0938C181.297 61.3438 180.84 60.5352 180.559 59.668C180.277 58.8008 180.125 57.9922 180.102 57.2422C180.078 56.4922 180.301 55.707 180.77 54.8867C181.238 54.0664 181.895 53.3164 182.738 52.6367C183.605 51.957 184.648 51.4062 185.867 50.9844C187.086 50.5391 188.422 50.3164 189.875 50.3164C190.719 50.3164 191.492 50.4219 192.195 50.6328C192.922 50.8203 193.578 51.0781 194.164 51.4062C194.773 51.7344 195.301 52.1094 195.746 52.5312C196.191 52.9297 196.566 53.3398 196.871 53.7617C197.176 54.207 197.434 54.6758 197.645 55.168C197.832 55.5898 197.984 56.0703 198.102 56.6094C198.219 57.1484 198.254 57.6992 198.207 58.2617C196.426 58.3086 194.984 58.3438 193.883 58.3672C192.805 58.3906 191.961 58.4023 191.352 58.4023H189.77H188.574C188.152 58.4023 187.602 58.4141 186.922 58.4375C186.242 58.4609 185.41 58.4961 184.426 58.543C184.543 59.4805 184.836 60.207 185.305 60.7227C185.797 61.2148 186.312 61.5898 186.852 61.8477C187.461 62.1289 188.129 62.293 188.855 62.3398ZM185.691 56.0117C186.441 56.0586 187.062 56.0938 187.555 56.1172C188.07 56.1406 188.492 56.1641 188.82 56.1875C189.172 56.2109 189.453 56.2227 189.664 56.2227H190.543C191.129 56.2227 192.219 56.1875 193.812 56.1172C193.742 55.0859 193.52 54.3008 193.145 53.7617C192.793 53.2227 192.418 52.8242 192.02 52.5664C191.551 52.2852 191.035 52.1211 190.473 52.0742C188.949 52.0977 187.812 52.4141 187.062 53.0234C186.336 53.6328 185.879 54.6289 185.691 56.0117ZM211.32 42.5117C212 42.6289 212.598 42.7109 213.113 42.7578C213.652 42.8047 214.098 42.8398 214.449 42.8633C214.871 42.8867 215.234 42.8984 215.539 42.8984C215.844 42.8984 216.277 42.875 216.84 42.8281C217.309 42.7812 217.918 42.7227 218.668 42.6523C219.441 42.582 220.391 42.4648 221.516 42.3008C221.188 42.3945 220.883 42.6641 220.602 43.1094C220.344 43.5312 220.109 43.9883 219.898 44.4805C219.641 45.0664 219.418 45.7109 219.23 46.4141C219.066 47.0469 218.855 47.9141 218.598 49.0156C218.363 50.1172 218.129 51.3125 217.895 52.6016C217.684 53.8906 217.52 55.2031 217.402 56.5391C217.285 57.8516 217.262 59.0586 217.332 60.1602C217.426 61.2617 217.648 62.1758 218 62.9023C218.352 63.6055 218.891 63.9805 219.617 64.0273C220.719 64.1211 221.633 64.1328 222.359 64.0625C223.109 63.9688 223.719 63.8398 224.188 63.6758C224.656 63.5117 225.02 63.3242 225.277 63.1133C225.535 62.8789 225.734 62.6562 225.875 62.4453C226.25 61.9062 226.637 61.2148 227.035 60.3711C227.434 59.5273 227.785 58.7188 228.09 57.9453C228.418 57.1719 228.688 56.5156 228.898 55.9766C229.109 55.4375 229.215 55.1797 229.215 55.2031C229.215 55.25 229.203 55.5195 229.18 56.0117C229.18 56.4805 229.168 57.0547 229.145 57.7344C229.145 58.3906 229.133 59.082 229.109 59.8086C229.109 60.5352 229.098 61.1562 229.074 61.6719C229.051 62.0938 229.027 62.5625 229.004 63.0781C228.98 63.5234 228.957 64.0508 228.934 64.6602C228.934 65.2695 228.91 65.9375 228.863 66.6641C227.879 66.5938 226.941 66.5469 226.051 66.5234C225.16 66.5 224.375 66.4883 223.695 66.4883C222.898 66.4883 222.16 66.5 221.48 66.5234C220.754 66.5469 219.91 66.582 218.949 66.6289C218.129 66.6758 217.109 66.7344 215.891 66.8047C214.672 66.8516 213.266 66.9219 211.672 67.0156C211.859 66.6875 212.012 66.3828 212.129 66.1016C212.27 65.8203 212.375 65.5859 212.445 65.3984C212.539 65.1641 212.598 64.9648 212.621 64.8008C212.762 64.0508 212.879 63.1016 212.973 61.9531C213.066 60.7812 213.137 59.5391 213.184 58.2266C213.254 56.9141 213.289 55.5781 213.289 54.2188C213.312 52.8359 213.312 51.5586 213.289 50.3867C213.266 49.2148 213.219 48.1953 213.148 47.3281C213.102 46.4609 213.031 45.8633 212.938 45.5352C212.82 45.1602 212.68 44.7852 212.516 44.4102C212.375 44.082 212.199 43.7539 211.988 43.4258C211.801 43.0742 211.578 42.7695 211.32 42.5117ZM240.605 52.25C241.215 52.25 241.848 52.3672 242.504 52.6016C243.16 52.8125 243.793 53.0938 244.402 53.4453C245.012 53.7734 245.562 54.1367 246.055 54.5352C246.57 54.9102 246.992 55.2734 247.32 55.625C247.906 56.2578 248.305 57.1133 248.516 58.1914C248.75 59.2461 248.797 60.3359 248.656 61.4609C248.516 62.5625 248.188 63.6055 247.672 64.5898C247.156 65.5742 246.441 66.3008 245.527 66.7695C244.871 67.0977 244.227 67.3555 243.594 67.543C242.961 67.7305 242.352 67.8711 241.766 67.9648C241.18 68.0586 240.629 68.1055 240.113 68.1055C239.598 68.1055 239.152 68.0938 238.777 68.0703C238.074 68.0234 237.336 67.7773 236.562 67.332C235.812 66.8867 235.098 66.3359 234.418 65.6797C233.762 65.0234 233.199 64.3086 232.73 63.5352C232.262 62.7383 231.98 61.9883 231.887 61.2852C231.746 60.3242 231.723 59.3164 231.816 58.2617C231.91 57.207 232.25 56.2344 232.836 55.3438C233.445 54.4531 234.359 53.7148 235.578 53.1289C236.82 52.543 238.496 52.25 240.605 52.25ZM239.445 65.8906C239.703 65.9375 240.055 65.8789 240.5 65.7148C240.945 65.5273 241.379 65.2344 241.801 64.8359C242.246 64.4375 242.633 63.9336 242.961 63.3242C243.312 62.6914 243.523 61.9297 243.594 61.0391C243.664 60.1719 243.664 59.375 243.594 58.6484C243.547 57.9219 243.441 57.2891 243.277 56.75C243.113 56.1875 242.926 55.7305 242.715 55.3789C242.504 55.0273 242.281 54.7812 242.047 54.6406C241.648 54.4297 241.168 54.2656 240.605 54.1484C240.043 54.0078 239.562 54.0312 239.164 54.2188C238.977 54.3125 238.742 54.5117 238.461 54.8164C238.18 55.1211 237.898 55.5078 237.617 55.9766C237.336 56.4219 237.078 56.9375 236.844 57.5234C236.633 58.1094 236.48 58.7188 236.387 59.3516C236.293 59.9844 236.27 60.6641 236.316 61.3906C236.387 62.1172 236.539 62.8086 236.773 63.4648C237.008 64.0977 237.336 64.6484 237.758 65.1172C238.203 65.5625 238.766 65.8203 239.445 65.8906ZM266.938 53.0938C266.867 52.625 266.809 52.2383 266.762 51.9336C266.715 51.6055 266.668 51.3477 266.621 51.1602C266.574 50.9258 266.539 50.75 266.516 50.6328C266.469 50.5156 266.41 50.3867 266.34 50.2461C266.293 50.1289 266.211 49.9883 266.094 49.8242C266 49.6602 265.883 49.4727 265.742 49.2617C266.047 49.3555 266.352 49.4141 266.656 49.4375C266.984 49.4609 267.289 49.4844 267.57 49.5078C267.875 49.5312 268.191 49.5312 268.52 49.5078C268.848 49.5078 269.223 49.4961 269.645 49.4727C270.02 49.4492 270.465 49.4375 270.98 49.4375C271.52 49.4141 272.129 49.3789 272.809 49.332C272.41 49.4258 272.07 49.5898 271.789 49.8242C271.531 50.0352 271.309 50.2695 271.121 50.5273C270.91 50.8086 270.734 51.1133 270.594 51.4414C270.477 51.7461 270.406 52.332 270.383 53.1992C270.359 54.043 270.359 55.0508 270.383 56.2227C270.406 57.3711 270.43 58.6133 270.453 59.9492C270.5 61.2852 270.523 62.5625 270.523 63.7812C270.547 65 270.547 66.1133 270.523 67.1211C270.5 68.1055 270.441 68.832 270.348 69.3008C270.02 70.7773 269.41 71.9727 268.52 72.8867C267.629 73.8242 266.457 74.3281 265.004 74.3984C263.246 74.4688 261.852 74.3047 260.82 73.9062C259.812 73.5078 259.027 73.0156 258.465 72.4297C257.902 71.8672 257.48 71.293 257.199 70.707C256.918 70.1211 256.625 69.6758 256.32 69.3711C256.039 69.1133 255.758 68.8672 255.477 68.6328C255.219 68.4453 254.949 68.2578 254.668 68.0703C254.41 67.8828 254.152 67.7656 253.895 67.7188C254.574 67.7422 255.184 67.7539 255.723 67.7539C256.262 67.7539 256.719 67.7539 257.094 67.7539C257.516 67.7539 257.891 67.7422 258.219 67.7188H259.344H262.543C262.074 67.8594 261.723 68.0117 261.488 68.1758C261.254 68.3633 261.09 68.5508 260.996 68.7383C260.902 68.9492 260.855 69.1602 260.855 69.3711C260.949 69.9336 261.254 70.3438 261.77 70.6016C262.285 70.8594 262.988 71.0117 263.879 71.0586C264.746 71.1055 265.344 71.082 265.672 70.9883C266 70.918 266.258 70.7773 266.445 70.5664C266.82 70.0039 267.137 69.2773 267.395 68.3867C267.582 67.6367 267.711 66.6641 267.781 65.4688C267.875 64.25 267.77 62.7617 267.465 61.0039C266.715 62.0352 265.848 62.8086 264.863 63.3242C263.879 63.8398 262.941 64.2148 262.051 64.4492C260.996 64.707 259.93 64.8359 258.852 64.8359C256.016 64.7188 253.895 64.0625 252.488 62.8672C251.082 61.6719 250.438 60.0664 250.555 58.0508C250.625 57.043 250.93 56.0352 251.469 55.0273C252.031 54.0195 252.758 53.1172 253.648 52.3203C254.562 51.5234 255.605 50.8906 256.777 50.4219C257.949 49.9531 259.168 49.7539 260.434 49.8242C261.395 49.918 262.297 50.0938 263.141 50.3516C263.867 50.5859 264.582 50.9141 265.285 51.3359C266.012 51.7578 266.562 52.3438 266.938 53.0938ZM255.758 56.6094C255.617 57.5234 255.676 58.3789 255.934 59.1758C256.215 59.9727 256.602 60.6641 257.094 61.25C257.586 61.8125 258.137 62.2578 258.746 62.5859C259.355 62.8906 259.93 63.0312 260.469 63.0078C261.594 62.9844 262.566 62.4805 263.387 61.4961C264.207 60.4883 264.699 58.9883 264.863 56.9961C264.934 56.0117 264.805 55.168 264.477 54.4648C264.172 53.7383 263.785 53.1523 263.316 52.707C262.848 52.2617 262.355 51.9453 261.84 51.7578C261.324 51.5703 260.914 51.4883 260.609 51.5117C260.188 51.5586 259.719 51.6875 259.203 51.8984C258.711 52.0859 258.23 52.3789 257.762 52.7773C257.293 53.1523 256.871 53.6562 256.496 54.2891C256.145 54.9219 255.898 55.6953 255.758 56.6094ZM282.547 52.25C283.156 52.25 283.789 52.3672 284.445 52.6016C285.102 52.8125 285.734 53.0938 286.344 53.4453C286.953 53.7734 287.504 54.1367 287.996 54.5352C288.512 54.9102 288.934 55.2734 289.262 55.625C289.848 56.2578 290.246 57.1133 290.457 58.1914C290.691 59.2461 290.738 60.3359 290.598 61.4609C290.457 62.5625 290.129 63.6055 289.613 64.5898C289.098 65.5742 288.383 66.3008 287.469 66.7695C286.812 67.0977 286.168 67.3555 285.535 67.543C284.902 67.7305 284.293 67.8711 283.707 67.9648C283.121 68.0586 282.57 68.1055 282.055 68.1055C281.539 68.1055 281.094 68.0938 280.719 68.0703C280.016 68.0234 279.277 67.7773 278.504 67.332C277.754 66.8867 277.039 66.3359 276.359 65.6797C275.703 65.0234 275.141 64.3086 274.672 63.5352C274.203 62.7383 273.922 61.9883 273.828 61.2852C273.688 60.3242 273.664 59.3164 273.758 58.2617C273.852 57.207 274.191 56.2344 274.777 55.3438C275.387 54.4531 276.301 53.7148 277.52 53.1289C278.762 52.543 280.438 52.25 282.547 52.25ZM281.387 65.8906C281.645 65.9375 281.996 65.8789 282.441 65.7148C282.887 65.5273 283.32 65.2344 283.742 64.8359C284.188 64.4375 284.574 63.9336 284.902 63.3242C285.254 62.6914 285.465 61.9297 285.535 61.0391C285.605 60.1719 285.605 59.375 285.535 58.6484C285.488 57.9219 285.383 57.2891 285.219 56.75C285.055 56.1875 284.867 55.7305 284.656 55.3789C284.445 55.0273 284.223 54.7812 283.988 54.6406C283.59 54.4297 283.109 54.2656 282.547 54.1484C281.984 54.0078 281.504 54.0312 281.105 54.2188C280.918 54.3125 280.684 54.5117 280.402 54.8164C280.121 55.1211 279.84 55.5078 279.559 55.9766C279.277 56.4219 279.02 56.9375 278.785 57.5234C278.574 58.1094 278.422 58.7188 278.328 59.3516C278.234 59.9844 278.211 60.6641 278.258 61.3906C278.328 62.1172 278.48 62.8086 278.715 63.4648C278.949 64.0977 279.277 64.6484 279.699 65.1172C280.145 65.5625 280.707 65.8203 281.387 65.8906ZM303.816 55.0977C304.73 55.1211 305.562 55.1328 306.312 55.1328C307.086 55.1328 307.754 55.1328 308.316 55.1328C308.973 55.1328 309.57 55.1211 310.109 55.0977C310.672 55.0977 311.387 55.0742 312.254 55.0273C313.004 55.0039 313.941 54.9688 315.066 54.9219C316.215 54.875 317.609 54.8164 319.25 54.7461L319.074 58.332C317.762 58.2383 316.66 58.1797 315.77 58.1562C314.902 58.1094 314.199 58.0742 313.66 58.0508C313.027 58.0273 312.512 58.0273 312.113 58.0508C311.715 58.0742 311.152 58.1094 310.426 58.1562C309.816 58.2031 308.984 58.2617 307.93 58.332C306.898 58.3789 305.586 58.4609 303.992 58.5781L303.816 55.0977ZM332.012 42.5117C332.691 42.6289 333.289 42.7109 333.805 42.7578C334.344 42.8047 334.789 42.8398 335.141 42.8633C335.562 42.8867 335.926 42.8984 336.23 42.8984C336.535 42.8984 336.969 42.875 337.531 42.8281C338 42.7812 338.609 42.7227 339.359 42.6523C340.133 42.582 341.082 42.4648 342.207 42.3008C341.879 42.3945 341.574 42.6641 341.293 43.1094C341.035 43.5312 340.801 43.9883 340.59 44.4805C340.332 45.0664 340.109 45.7109 339.922 46.4141C339.758 47.0469 339.547 47.9141 339.289 49.0156C339.055 50.1172 338.82 51.3125 338.586 52.6016C338.375 53.8906 338.211 55.2031 338.094 56.5391C337.977 57.8516 337.953 59.0586 338.023 60.1602C338.117 61.2617 338.34 62.1758 338.691 62.9023C339.043 63.6055 339.582 63.9805 340.309 64.0273C341.41 64.1211 342.324 64.1328 343.051 64.0625C343.801 63.9688 344.41 63.8398 344.879 63.6758C345.348 63.5117 345.711 63.3242 345.969 63.1133C346.227 62.8789 346.426 62.6562 346.566 62.4453C346.941 61.9062 347.328 61.2148 347.727 60.3711C348.125 59.5273 348.477 58.7188 348.781 57.9453C349.109 57.1719 349.379 56.5156 349.59 55.9766C349.801 55.4375 349.906 55.1797 349.906 55.2031C349.906 55.25 349.895 55.5195 349.871 56.0117C349.871 56.4805 349.859 57.0547 349.836 57.7344C349.836 58.3906 349.824 59.082 349.801 59.8086C349.801 60.5352 349.789 61.1562 349.766 61.6719C349.742 62.0938 349.719 62.5625 349.695 63.0781C349.672 63.5234 349.648 64.0508 349.625 64.6602C349.625 65.2695 349.602 65.9375 349.555 66.6641C348.57 66.5938 347.633 66.5469 346.742 66.5234C345.852 66.5 345.066 66.4883 344.387 66.4883C343.59 66.4883 342.852 66.5 342.172 66.5234C341.445 66.5469 340.602 66.582 339.641 66.6289C338.82 66.6758 337.801 66.7344 336.582 66.8047C335.363 66.8516 333.957 66.9219 332.363 67.0156C332.551 66.6875 332.703 66.3828 332.82 66.1016C332.961 65.8203 333.066 65.5859 333.137 65.3984C333.23 65.1641 333.289 64.9648 333.312 64.8008C333.453 64.0508 333.57 63.1016 333.664 61.9531C333.758 60.7812 333.828 59.5391 333.875 58.2266C333.945 56.9141 333.98 55.5781 333.98 54.2188C334.004 52.8359 334.004 51.5586 333.98 50.3867C333.957 49.2148 333.91 48.1953 333.84 47.3281C333.793 46.4609 333.723 45.8633 333.629 45.5352C333.512 45.1602 333.371 44.7852 333.207 44.4102C333.066 44.082 332.891 43.7539 332.68 43.4258C332.492 43.0742 332.27 42.7695 332.012 42.5117ZM351.875 52.2852L358.344 52.3555C357.969 53.7852 357.688 55.0039 357.5 56.0117C357.336 57.0195 357.23 57.8633 357.184 58.543C357.09 59.3164 357.066 59.9727 357.113 60.5117C357.184 61.0039 357.301 61.5312 357.465 62.0938C357.605 62.5625 357.816 63.1016 358.098 63.7109C358.379 64.3203 358.754 64.9297 359.223 65.5391C358.941 65.4453 358.637 65.375 358.309 65.3281C357.98 65.2812 357.676 65.2461 357.395 65.2227C357.066 65.1992 356.738 65.1992 356.41 65.2227C356.082 65.2461 355.719 65.2812 355.32 65.3281C354.992 65.375 354.594 65.4336 354.125 65.5039C353.656 65.5742 353.164 65.668 352.648 65.7852C353 64.7305 353.27 63.8164 353.457 63.043C353.668 62.2695 353.82 61.625 353.914 61.1094C354.008 60.5 354.066 60.0078 354.09 59.6328C354.09 59.1641 354.09 58.6367 354.09 58.0508C354.09 57.4414 354.09 56.8555 354.09 56.293C354.09 55.7305 354.078 55.2383 354.055 54.8164C354.031 54.3711 353.984 54.0898 353.914 53.9727L353.562 53.6211C353.422 53.5039 353.211 53.3398 352.93 53.1289C352.672 52.8945 352.32 52.6133 351.875 52.2852ZM354.371 46.8711C354.863 46.6133 355.355 46.543 355.848 46.6602C356.363 46.7773 356.762 47 357.043 47.3281C357.324 47.6562 357.418 48.043 357.324 48.4883C357.254 48.9336 356.879 49.3672 356.199 49.7891C355.52 50.1875 354.922 50.3281 354.406 50.2109C353.891 50.0938 353.527 49.8477 353.316 49.4727C353.105 49.0977 353.07 48.6641 353.211 48.1719C353.352 47.6562 353.738 47.2227 354.371 46.8711ZM377.082 53.0938C377.012 52.625 376.953 52.2383 376.906 51.9336C376.859 51.6055 376.812 51.3477 376.766 51.1602C376.719 50.9258 376.684 50.75 376.66 50.6328C376.613 50.5156 376.555 50.3867 376.484 50.2461C376.438 50.1289 376.355 49.9883 376.238 49.8242C376.145 49.6602 376.027 49.4727 375.887 49.2617C376.191 49.3555 376.496 49.4141 376.801 49.4375C377.129 49.4609 377.434 49.4844 377.715 49.5078C378.02 49.5312 378.336 49.5312 378.664 49.5078C378.992 49.5078 379.367 49.4961 379.789 49.4727C380.164 49.4492 380.609 49.4375 381.125 49.4375C381.664 49.4141 382.273 49.3789 382.953 49.332C382.555 49.4258 382.215 49.5898 381.934 49.8242C381.676 50.0352 381.453 50.2695 381.266 50.5273C381.055 50.8086 380.879 51.1133 380.738 51.4414C380.621 51.7461 380.551 52.332 380.527 53.1992C380.504 54.043 380.504 55.0508 380.527 56.2227C380.551 57.3711 380.574 58.6133 380.598 59.9492C380.645 61.2852 380.668 62.5625 380.668 63.7812C380.691 65 380.691 66.1133 380.668 67.1211C380.645 68.1055 380.586 68.832 380.492 69.3008C380.164 70.7773 379.555 71.9727 378.664 72.8867C377.773 73.8242 376.602 74.3281 375.148 74.3984C373.391 74.4688 371.996 74.3047 370.965 73.9062C369.957 73.5078 369.172 73.0156 368.609 72.4297C368.047 71.8672 367.625 71.293 367.344 70.707C367.062 70.1211 366.77 69.6758 366.465 69.3711C366.184 69.1133 365.902 68.8672 365.621 68.6328C365.363 68.4453 365.094 68.2578 364.812 68.0703C364.555 67.8828 364.297 67.7656 364.039 67.7188C364.719 67.7422 365.328 67.7539 365.867 67.7539C366.406 67.7539 366.863 67.7539 367.238 67.7539C367.66 67.7539 368.035 67.7422 368.363 67.7188H369.488H372.688C372.219 67.8594 371.867 68.0117 371.633 68.1758C371.398 68.3633 371.234 68.5508 371.141 68.7383C371.047 68.9492 371 69.1602 371 69.3711C371.094 69.9336 371.398 70.3438 371.914 70.6016C372.43 70.8594 373.133 71.0117 374.023 71.0586C374.891 71.1055 375.488 71.082 375.816 70.9883C376.145 70.918 376.402 70.7773 376.59 70.5664C376.965 70.0039 377.281 69.2773 377.539 68.3867C377.727 67.6367 377.855 66.6641 377.926 65.4688C378.02 64.25 377.914 62.7617 377.609 61.0039C376.859 62.0352 375.992 62.8086 375.008 63.3242C374.023 63.8398 373.086 64.2148 372.195 64.4492C371.141 64.707 370.074 64.8359 368.996 64.8359C366.16 64.7188 364.039 64.0625 362.633 62.8672C361.227 61.6719 360.582 60.0664 360.699 58.0508C360.77 57.043 361.074 56.0352 361.613 55.0273C362.176 54.0195 362.902 53.1172 363.793 52.3203C364.707 51.5234 365.75 50.8906 366.922 50.4219C368.094 49.9531 369.312 49.7539 370.578 49.8242C371.539 49.918 372.441 50.0938 373.285 50.3516C374.012 50.5859 374.727 50.9141 375.43 51.3359C376.156 51.7578 376.707 52.3438 377.082 53.0938ZM365.902 56.6094C365.762 57.5234 365.82 58.3789 366.078 59.1758C366.359 59.9727 366.746 60.6641 367.238 61.25C367.73 61.8125 368.281 62.2578 368.891 62.5859C369.5 62.8906 370.074 63.0312 370.613 63.0078C371.738 62.9844 372.711 62.4805 373.531 61.4961C374.352 60.4883 374.844 58.9883 375.008 56.9961C375.078 56.0117 374.949 55.168 374.621 54.4648C374.316 53.7383 373.93 53.1523 373.461 52.707C372.992 52.2617 372.5 51.9453 371.984 51.7578C371.469 51.5703 371.059 51.4883 370.754 51.5117C370.332 51.5586 369.863 51.6875 369.348 51.8984C368.855 52.0859 368.375 52.3789 367.906 52.7773C367.438 53.1523 367.016 53.6562 366.641 54.2891C366.289 54.9219 366.043 55.6953 365.902 56.6094ZM383.094 41.3516C383.633 41.4453 384.125 41.5156 384.57 41.5625C385.016 41.5859 385.391 41.6094 385.695 41.6328C386.047 41.6562 386.352 41.668 386.609 41.668C386.961 41.6445 387.371 41.6094 387.84 41.5625C388.238 41.5156 388.719 41.457 389.281 41.3867C389.867 41.3164 390.535 41.2227 391.285 41.1055C390.934 41.293 390.641 41.4805 390.406 41.668C390.172 41.832 389.984 42.0078 389.844 42.1953C389.68 42.4062 389.551 42.6055 389.457 42.793C389.34 43.0977 389.211 43.7305 389.07 44.6914C388.93 45.5117 388.754 46.7305 388.543 48.3477C388.355 49.9648 388.109 52.1562 387.805 54.9219C388.648 54.0781 389.445 53.4453 390.195 53.0234C390.969 52.5781 391.648 52.2617 392.234 52.0742C392.914 51.8633 393.547 51.7578 394.133 51.7578C394.859 51.8281 395.598 52.0625 396.348 52.4609C397.121 52.8359 397.836 53.2812 398.492 53.7969C399.172 54.3125 399.758 54.8633 400.25 55.4492C400.766 56.0352 401.129 56.5508 401.34 56.9961C401.48 57.3008 401.551 57.6992 401.551 58.1914C401.551 58.6602 401.504 59.1758 401.41 59.7383C401.316 60.3008 401.188 60.875 401.023 61.4609C400.859 62.0469 400.695 62.5977 400.531 63.1133C400.391 63.6289 400.262 64.0859 400.145 64.4844C400.027 64.8594 399.957 65.1289 399.934 65.293C399.887 65.6445 399.91 65.9844 400.004 66.3125C400.074 66.5938 400.215 66.8984 400.426 67.2266C400.637 67.5312 400.953 67.7891 401.375 68C401.047 67.9531 400.695 67.918 400.32 67.8945C399.969 67.8477 399.629 67.8125 399.301 67.7891C398.926 67.7656 398.551 67.7539 398.176 67.7539H396.91C396.512 67.7539 396.055 67.7656 395.539 67.7891C395.023 67.7891 394.461 67.8008 393.852 67.8242C394.18 67.707 394.461 67.5547 394.695 67.3672C394.93 67.1562 395.129 66.957 395.293 66.7695C395.48 66.5586 395.645 66.3359 395.785 66.1016C395.879 65.9141 395.996 65.5625 396.137 65.0469C396.277 64.5078 396.406 63.8984 396.523 63.2188C396.641 62.5156 396.723 61.7773 396.77 61.0039C396.84 60.2305 396.852 59.4922 396.805 58.7891C396.781 58.0625 396.676 57.418 396.488 56.8555C396.324 56.293 396.066 55.8828 395.715 55.625C394.66 54.8281 393.699 54.4414 392.832 54.4648C391.988 54.4648 391.18 54.8047 390.406 55.4844C390.125 55.7422 389.855 56 389.598 56.2578C389.363 56.4922 389.105 56.7734 388.824 57.1016C388.543 57.4062 388.285 57.7227 388.051 58.0508C388.051 58.4023 388.062 58.7891 388.086 59.2109C388.109 59.6328 388.133 60.043 388.156 60.4414C388.18 60.8867 388.215 61.332 388.262 61.7773C388.309 62.457 388.379 63.125 388.473 63.7812C388.543 64.3438 388.637 64.9648 388.754 65.6445C388.871 66.3008 389.023 66.8984 389.211 67.4375C388.906 67.3906 388.59 67.3789 388.262 67.4023C387.934 67.4023 387.617 67.4023 387.312 67.4023C386.961 67.4258 386.621 67.4375 386.293 67.4375C385.988 67.4609 385.672 67.4961 385.344 67.543C385.062 67.5898 384.758 67.6367 384.43 67.6836C384.102 67.707 383.785 67.7539 383.48 67.8242C383.762 67.2852 383.996 66.7578 384.184 66.2422C384.371 65.7031 384.523 65.2344 384.641 64.8359C384.781 64.3672 384.898 63.9102 384.992 63.4648C385.062 63.1133 385.109 62.4453 385.133 61.4609C385.18 60.4531 385.215 59.3047 385.238 58.0156C385.262 56.7031 385.273 55.3203 385.273 53.8672C385.273 52.4141 385.262 51.0312 385.238 49.7188C385.215 48.4062 385.168 47.2578 385.098 46.2734C385.051 45.2891 384.992 44.6094 384.922 44.2344C384.828 43.8594 384.699 43.4844 384.535 43.1094C384.395 42.7812 384.207 42.4648 383.973 42.1602C383.738 41.832 383.445 41.5625 383.094 41.3516ZM402.887 45.8516C403.59 45.9219 404.176 45.9805 404.645 46.0273C405.137 46.0742 405.535 46.1094 405.84 46.1328C406.191 46.1562 406.473 46.168 406.684 46.168C406.895 46.1914 407.176 46.1914 407.527 46.168C407.832 46.1445 408.23 46.1211 408.723 46.0977C409.215 46.0508 409.836 45.9805 410.586 45.8867C410.422 46.1211 410.293 46.332 410.199 46.5195C410.105 46.6836 410.023 46.8359 409.953 46.9766L409.742 47.3984C409.695 47.5391 409.648 47.6797 409.602 47.8203C409.555 47.9375 409.508 48.0781 409.461 48.2422C409.438 48.4062 409.414 48.582 409.391 48.7695H414.805L414.312 51.6172L409.355 51.3359C409.238 52.5312 409.156 53.457 409.109 54.1133C409.062 54.7695 409.016 55.25 408.969 55.5547L408.898 56.1875C408.828 57.0781 408.758 58.0508 408.688 59.1055C408.617 60.1367 408.594 61.0977 408.617 61.9883C408.641 62.8789 408.723 63.6289 408.863 64.2383C409.004 64.8242 409.25 65.1172 409.602 65.1172C409.953 65.1172 410.281 65.0234 410.586 64.8359C410.891 64.6484 411.148 64.4258 411.359 64.168C411.594 63.9102 411.77 63.6523 411.887 63.3945C412.004 63.1133 412.062 62.9023 412.062 62.7617C412.062 62.6211 412.027 62.457 411.957 62.2695C411.84 61.918 411.629 61.4727 411.324 60.9336C412.004 61.0977 412.602 61.2617 413.117 61.4258C413.375 61.5195 413.609 61.6133 413.82 61.707C414.055 61.8008 414.324 61.9062 414.629 62.0234C414.887 62.1406 415.215 62.2812 415.613 62.4453C416.012 62.6094 416.48 62.8086 417.02 63.043C416.504 63.1367 416.129 63.2891 415.895 63.5C415.754 63.5938 415.648 63.6992 415.578 63.8164C415.414 64.0742 415.227 64.4258 415.016 64.8711C414.805 65.293 414.488 65.7148 414.066 66.1367C413.645 66.5586 413.07 66.9336 412.344 67.2617C411.641 67.5898 410.691 67.7773 409.496 67.8242C408.254 67.8711 407.305 67.6602 406.648 67.1914C406.016 66.7227 405.547 66.1836 405.242 65.5742C404.961 64.9414 404.797 64.3203 404.75 63.7109C404.703 63.1016 404.668 62.6914 404.645 62.4805C404.621 62.2695 404.621 61.7422 404.645 60.8984C404.668 60.0547 404.703 59.1289 404.75 58.1211C404.797 57.0898 404.844 56.1055 404.891 55.168C404.938 54.207 404.961 53.5039 404.961 53.0586C404.961 52.8242 404.973 52.5781 404.996 52.3203C404.996 52.1094 404.996 51.8867 404.996 51.6523C405.02 51.3945 405.031 51.1484 405.031 50.9141L399.934 50.8789L399.723 48.875L404.855 49.0156C404.809 48.7578 404.75 48.5234 404.68 48.3125C404.633 48.0781 404.586 47.8906 404.539 47.75C404.469 47.5859 404.398 47.4453 404.328 47.3281C404.234 47.2109 404.129 47.082 404.012 46.9414C403.895 46.8242 403.742 46.6719 403.555 46.4844C403.367 46.2969 403.145 46.0859 402.887 45.8516Z" fill="#150101"/>
<path d="M164.875 225C158.644 225.013 152.546 226.8 147.293 230.153L148.537 231.954C153.446 228.84 159.133 227.188 164.944 227.188C168.676 227.188 172.381 227.868 175.868 229.2L176.729 227.189C172.968 225.742 168.973 225 164.944 225H164.875ZM178.998 228.161L178.137 230.172C185.561 233.714 191.248 240.094 193.914 247.873L196.006 247.244C194.037 238.33 188.35 231.193 178.998 228.161ZM164.862 229.785C159.612 229.8 154.457 231.292 150.014 234.09L164.684 255.283C168.95 247.654 172.162 239.697 174.842 231.59C171.684 230.396 168.321 229.785 164.944 229.785H164.862ZM168.881 231.006L171.493 234.268L169.578 235.806L166.967 232.543L168.881 231.006ZM145.27 231.553C135.027 237.059 132.766 245.398 132.295 254.531L134.48 254.668C135.354 246.205 139.714 238.48 146.514 233.352L145.27 231.553ZM160.323 232.52C161.444 232.52 162.483 232.809 163.317 233.367C164.151 233.924 164.821 234.837 164.821 235.938C164.821 237.045 164.151 237.947 163.317 238.508C162.483 239.068 161.444 239.355 160.323 239.355C159.201 239.355 158.162 239.068 157.328 238.508C156.494 237.947 155.825 237.045 155.825 235.938C155.825 234.837 156.494 233.924 157.328 233.367C158.162 232.809 159.201 232.52 160.323 232.52ZM177.112 232.562C174.61 240.668 171.41 248.488 167.118 255.871L176.455 253.082C176.018 252.412 175.772 251.592 175.772 250.73C175.772 248.68 177.207 246.793 179.244 246.793C181.282 246.793 182.717 248.68 182.717 250.73C182.717 250.895 182.703 251.059 182.69 251.236L191.426 248.625C188.979 241.584 183.825 235.798 177.112 232.562ZM160.323 234.98C159.639 234.98 159.051 235.177 158.696 235.413C158.34 235.646 158.285 235.829 158.285 235.938C158.285 236.046 158.34 236.229 158.696 236.462C159.051 236.703 159.639 236.895 160.323 236.895C161.006 236.895 161.594 236.703 161.95 236.462C162.305 236.229 162.36 236.046 162.36 235.938C162.36 235.829 162.305 235.646 161.95 235.413C161.594 235.177 161.006 234.98 160.323 234.98ZM147.991 235.489C141.844 240.162 137.894 247.162 137.075 254.832C145.639 254.914 154.184 255.078 162.496 256.418L159.885 252.645L157.356 254.025L156.18 251.865L158.477 250.607L150.684 239.383L147.526 241.885L145.994 239.943L149.276 237.346L147.991 235.489ZM179.928 237.373L181.596 240.121L179.491 241.406L177.823 238.658L179.928 237.373ZM165.368 240.531L166.434 242.746L162.305 244.701L161.239 242.486L165.368 240.531ZM146.815 243.457C149.139 243.457 150.862 245.59 150.862 247.969C150.862 250.348 149.139 252.48 146.815 252.48C144.491 252.48 142.768 250.348 142.768 247.969C142.768 245.59 144.491 243.457 146.815 243.457ZM187.557 244.729L188.063 248.502L185.629 248.83L185.123 245.057L187.557 244.729ZM146.815 245.918C146.035 245.918 145.229 246.725 145.229 247.969C145.229 249.213 146.035 250.02 146.815 250.02C147.594 250.02 148.401 249.213 148.401 247.969C148.401 246.725 147.594 245.918 146.815 245.918ZM179.244 249.254C178.807 249.254 178.233 249.787 178.233 250.73C178.233 251.674 178.807 252.207 179.244 252.207C179.682 252.207 180.256 251.674 180.256 250.73C180.256 249.787 179.682 249.254 179.244 249.254ZM196.717 249.609L194.612 250.225C195.241 252.699 195.569 255.256 195.569 257.812C195.569 264.252 193.545 270.527 189.772 275.75L191.494 277.104C195.569 271.498 197.756 264.744 197.756 257.812C197.756 255.051 197.414 252.289 196.717 249.609ZM192.123 250.977L175.17 256.049L176.537 257.02L175.116 259.016L172.19 256.938L167.569 258.318C173.735 264.184 180.926 268.941 187.721 274.137C190.975 269.379 192.014 263.664 192.971 257.812C193.34 255.529 192.684 253.205 192.123 250.977ZM132.141 256.992C132.127 257.266 132.141 257.539 132.127 257.812C131.433 267.424 133.366 276.775 143.416 282.586L144.791 280.877C138.136 275.066 134.317 266.658 134.319 257.812V257.129L132.141 256.992ZM136.922 257.293V257.812C136.922 260.82 137.403 263.801 138.351 266.658L139.853 263.445L142.082 264.484L139.603 269.789C141.235 273.248 143.555 276.324 146.418 278.854L162.483 258.893L144.832 257.785L141.469 261.135L139.73 259.385L141.537 257.58L136.922 257.293ZM187.174 259.084C187.489 259.07 187.803 259.111 188.118 259.221C189.102 259.521 189.799 260.328 190.127 261.244C190.455 262.133 190.455 263.145 190.141 264.143C189.84 265.127 189.239 265.961 188.473 266.521C187.68 267.055 186.655 267.328 185.657 267.014C185.301 266.904 184.987 266.727 184.713 266.508L183.647 267.725L179.873 264.471L181.487 262.611L183.469 264.32C183.332 263.596 183.387 262.83 183.619 262.092C183.934 261.094 184.522 260.273 185.301 259.727C185.848 259.344 186.504 259.098 187.174 259.084ZM151.477 259.836L155.537 261.367L154.662 263.664L150.602 262.133L151.477 259.836ZM166.338 260.465L167.063 272.031C167.719 272.168 168.321 272.387 168.854 272.701C169.77 273.234 170.549 274.15 170.549 275.312C170.549 276.475 169.77 277.391 168.854 277.924C168.43 278.17 167.965 278.361 167.473 278.498L167.924 285.676C169.442 285.512 170.932 285.225 172.395 284.828L172.873 280.85L175.307 281.15L174.965 283.98C179.313 282.326 183.168 279.605 186.203 276.078C183.373 273.85 179.996 272.264 177.7 269.393L176.715 272.141L174.391 271.32L175.649 267.779C171.793 265.865 169.387 262.939 166.338 260.465ZM163.918 261.053L148.332 280.385C153.145 283.926 158.969 285.84 164.944 285.84H165.463L165.012 278.703C164.028 278.635 163.125 278.375 162.373 277.924C161.457 277.391 160.678 276.475 160.678 275.312C160.678 274.15 161.457 273.234 162.373 272.701C163.016 272.318 163.782 272.072 164.602 271.963L163.918 261.053ZM187.243 261.545C187.106 261.531 186.942 261.586 186.723 261.723C186.436 261.928 186.135 262.324 185.971 262.83C185.821 263.336 185.848 263.828 185.957 264.156C186.08 264.484 186.244 264.621 186.395 264.662C186.559 264.717 186.764 264.689 187.051 264.498C187.325 264.307 187.639 263.91 187.803 263.404C187.953 262.898 187.926 262.393 187.817 262.078C187.694 261.75 187.53 261.613 187.379 261.559C187.338 261.545 187.297 261.545 187.243 261.545ZM147.143 265.633C147.731 265.646 148.319 265.783 148.866 266.043C150.821 266.986 151.778 269.338 150.834 271.293C149.891 273.262 147.457 273.986 145.502 273.043C143.544 272.1 142.596 269.762 143.536 267.793C144.217 266.385 145.653 265.619 147.143 265.633ZM147.02 268.08C146.473 268.094 145.981 268.381 145.748 268.859C145.42 269.557 145.735 270.432 146.569 270.828C147.403 271.225 148.278 270.924 148.619 270.227C148.948 269.543 148.633 268.668 147.799 268.271C147.539 268.135 147.266 268.08 147.02 268.08ZM165.614 274.355C164.793 274.355 164.055 274.574 163.618 274.82C163.18 275.08 163.139 275.271 163.139 275.312C163.139 275.354 163.18 275.545 163.618 275.805C164.055 276.051 164.793 276.27 165.614 276.27C166.434 276.27 167.172 276.051 167.61 275.805C168.047 275.545 168.088 275.354 168.088 275.312C168.088 275.271 168.047 275.08 167.61 274.82C167.172 274.574 166.434 274.355 165.614 274.355ZM188.241 277.691C183.127 283.68 175.922 287.467 168.088 288.273L168.225 290.461C176.975 290.912 185.26 288.916 189.963 279.045L188.241 277.691ZM154.621 278.102L158.463 278.457L158.244 280.918L154.403 280.562L154.621 278.102ZM146.705 282.408L145.338 284.117C150.274 290.27 157.67 291.186 164.944 290.625C165.217 290.598 165.491 290.625 165.764 290.611L165.627 288.424C165.395 288.438 165.176 288.438 164.944 288.438C158.381 288.438 151.983 286.318 146.705 282.408Z" fill="#FFA629"/>
<path d="M235.875 225C229.644 225.013 223.546 226.8 218.293 230.153L219.537 231.954C224.446 228.84 230.133 227.188 235.944 227.188C239.676 227.188 243.381 227.868 246.868 229.2L247.729 227.189C243.968 225.742 239.973 225 235.944 225H235.875ZM249.998 228.161L249.137 230.172C256.561 233.714 262.248 240.094 264.914 247.873L267.006 247.244C265.037 238.33 259.35 231.193 249.998 228.161ZM235.862 229.785C230.612 229.8 225.457 231.292 221.014 234.09L235.684 255.283C239.95 247.654 243.162 239.697 245.842 231.59C242.684 230.396 239.321 229.785 235.944 229.785H235.862ZM239.881 231.006L242.493 234.268L240.578 235.806L237.967 232.543L239.881 231.006ZM216.27 231.553C206.027 237.059 203.766 245.398 203.295 254.531L205.48 254.668C206.354 246.205 210.714 238.48 217.514 233.352L216.27 231.553ZM231.323 232.52C232.444 232.52 233.483 232.809 234.317 233.367C235.151 233.924 235.821 234.837 235.821 235.938C235.821 237.045 235.151 237.947 234.317 238.508C233.483 239.068 232.444 239.355 231.323 239.355C230.201 239.355 229.162 239.068 228.328 238.508C227.494 237.947 226.825 237.045 226.825 235.938C226.825 234.837 227.494 233.924 228.328 233.367C229.162 232.809 230.201 232.52 231.323 232.52ZM248.112 232.562C245.61 240.668 242.41 248.488 238.118 255.871L247.455 253.082C247.018 252.412 246.772 251.592 246.772 250.73C246.772 248.68 248.207 246.793 250.244 246.793C252.282 246.793 253.717 248.68 253.717 250.73C253.717 250.895 253.703 251.059 253.69 251.236L262.426 248.625C259.979 241.584 254.825 235.798 248.112 232.562ZM231.323 234.98C230.639 234.98 230.051 235.177 229.696 235.413C229.34 235.646 229.285 235.829 229.285 235.938C229.285 236.046 229.34 236.229 229.696 236.462C230.051 236.703 230.639 236.895 231.323 236.895C232.006 236.895 232.594 236.703 232.95 236.462C233.305 236.229 233.36 236.046 233.36 235.938C233.36 235.829 233.305 235.646 232.95 235.413C232.594 235.177 232.006 234.98 231.323 234.98ZM218.991 235.489C212.844 240.162 208.894 247.162 208.075 254.832C216.639 254.914 225.184 255.078 233.496 256.418L230.885 252.645L228.356 254.025L227.18 251.865L229.477 250.607L221.684 239.383L218.526 241.885L216.994 239.943L220.276 237.346L218.991 235.489ZM250.928 237.373L252.596 240.121L250.491 241.406L248.823 238.658L250.928 237.373ZM236.368 240.531L237.434 242.746L233.305 244.701L232.239 242.486L236.368 240.531ZM217.815 243.457C220.139 243.457 221.862 245.59 221.862 247.969C221.862 250.348 220.139 252.48 217.815 252.48C215.491 252.48 213.768 250.348 213.768 247.969C213.768 245.59 215.491 243.457 217.815 243.457ZM258.557 244.729L259.063 248.502L256.629 248.83L256.123 245.057L258.557 244.729ZM217.815 245.918C217.035 245.918 216.229 246.725 216.229 247.969C216.229 249.213 217.035 250.02 217.815 250.02C218.594 250.02 219.401 249.213 219.401 247.969C219.401 246.725 218.594 245.918 217.815 245.918ZM250.244 249.254C249.807 249.254 249.233 249.787 249.233 250.73C249.233 251.674 249.807 252.207 250.244 252.207C250.682 252.207 251.256 251.674 251.256 250.73C251.256 249.787 250.682 249.254 250.244 249.254ZM267.717 249.609L265.612 250.225C266.241 252.699 266.569 255.256 266.569 257.812C266.569 264.252 264.545 270.527 260.772 275.75L262.494 277.104C266.569 271.498 268.756 264.744 268.756 257.812C268.756 255.051 268.414 252.289 267.717 249.609ZM263.123 250.977L246.17 256.049L247.537 257.02L246.116 259.016L243.19 256.938L238.569 258.318C244.735 264.184 251.926 268.941 258.721 274.137C261.975 269.379 263.014 263.664 263.971 257.812C264.34 255.529 263.684 253.205 263.123 250.977ZM203.141 256.992C203.127 257.266 203.141 257.539 203.127 257.812C202.433 267.424 204.366 276.775 214.416 282.586L215.791 280.877C209.136 275.066 205.317 266.658 205.319 257.812V257.129L203.141 256.992ZM207.922 257.293V257.812C207.922 260.82 208.403 263.801 209.351 266.658L210.853 263.445L213.082 264.484L210.603 269.789C212.235 273.248 214.555 276.324 217.418 278.854L233.483 258.893L215.832 257.785L212.469 261.135L210.73 259.385L212.537 257.58L207.922 257.293ZM258.174 259.084C258.489 259.07 258.803 259.111 259.118 259.221C260.102 259.521 260.799 260.328 261.127 261.244C261.455 262.133 261.455 263.145 261.141 264.143C260.84 265.127 260.239 265.961 259.473 266.521C258.68 267.055 257.655 267.328 256.657 267.014C256.301 266.904 255.987 266.727 255.713 266.508L254.647 267.725L250.873 264.471L252.487 262.611L254.469 264.32C254.332 263.596 254.387 262.83 254.619 262.092C254.934 261.094 255.522 260.273 256.301 259.727C256.848 259.344 257.504 259.098 258.174 259.084ZM222.477 259.836L226.537 261.367L225.662 263.664L221.602 262.133L222.477 259.836ZM237.338 260.465L238.063 272.031C238.719 272.168 239.321 272.387 239.854 272.701C240.77 273.234 241.549 274.15 241.549 275.312C241.549 276.475 240.77 277.391 239.854 277.924C239.43 278.17 238.965 278.361 238.473 278.498L238.924 285.676C240.442 285.512 241.932 285.225 243.395 284.828L243.873 280.85L246.307 281.15L245.965 283.98C250.313 282.326 254.168 279.605 257.203 276.078C254.373 273.85 250.996 272.264 248.7 269.393L247.715 272.141L245.391 271.32L246.649 267.779C242.793 265.865 240.387 262.939 237.338 260.465ZM234.918 261.053L219.332 280.385C224.145 283.926 229.969 285.84 235.944 285.84H236.463L236.012 278.703C235.028 278.635 234.125 278.375 233.373 277.924C232.457 277.391 231.678 276.475 231.678 275.312C231.678 274.15 232.457 273.234 233.373 272.701C234.016 272.318 234.782 272.072 235.602 271.963L234.918 261.053ZM258.243 261.545C258.106 261.531 257.942 261.586 257.723 261.723C257.436 261.928 257.135 262.324 256.971 262.83C256.821 263.336 256.848 263.828 256.957 264.156C257.08 264.484 257.244 264.621 257.395 264.662C257.559 264.717 257.764 264.689 258.051 264.498C258.325 264.307 258.639 263.91 258.803 263.404C258.953 262.898 258.926 262.393 258.817 262.078C258.694 261.75 258.53 261.613 258.379 261.559C258.338 261.545 258.297 261.545 258.243 261.545ZM218.143 265.633C218.731 265.646 219.319 265.783 219.866 266.043C221.821 266.986 222.778 269.338 221.834 271.293C220.891 273.262 218.457 273.986 216.502 273.043C214.544 272.1 213.596 269.762 214.536 267.793C215.217 266.385 216.653 265.619 218.143 265.633ZM218.02 268.08C217.473 268.094 216.981 268.381 216.748 268.859C216.42 269.557 216.735 270.432 217.569 270.828C218.403 271.225 219.278 270.924 219.619 270.227C219.948 269.543 219.633 268.668 218.799 268.271C218.539 268.135 218.266 268.08 218.02 268.08ZM236.614 274.355C235.793 274.355 235.055 274.574 234.618 274.82C234.18 275.08 234.139 275.271 234.139 275.312C234.139 275.354 234.18 275.545 234.618 275.805C235.055 276.051 235.793 276.27 236.614 276.27C237.434 276.27 238.172 276.051 238.61 275.805C239.047 275.545 239.088 275.354 239.088 275.312C239.088 275.271 239.047 275.08 238.61 274.82C238.172 274.574 237.434 274.355 236.614 274.355ZM259.241 277.691C254.127 283.68 246.922 287.467 239.088 288.273L239.225 290.461C247.975 290.912 256.26 288.916 260.963 279.045L259.241 277.691ZM225.621 278.102L229.463 278.457L229.244 280.918L225.403 280.562L225.621 278.102ZM217.705 282.408L216.338 284.117C221.274 290.27 228.67 291.186 235.944 290.625C236.217 290.598 236.491 290.625 236.764 290.611L236.627 288.424C236.395 288.438 236.176 288.438 235.944 288.438C229.381 288.438 222.983 286.318 217.705 282.408Z" fill="#FFA629"/>
<path d="M120.045 234.636V246.909H86.3636V234.636H120.045ZM93.3864 287V231.977C93.3864 227.932 94.1477 224.58 95.6705 221.92C97.1932 219.239 99.3068 217.239 102.011 215.92C104.716 214.58 107.841 213.909 111.386 213.909C113.705 213.909 115.886 214.091 117.932 214.455C120 214.795 121.534 215.102 122.534 215.375L119.875 227.58C119.261 227.375 118.511 227.205 117.625 227.068C116.761 226.932 115.943 226.864 115.17 226.864C113.216 226.864 111.875 227.295 111.148 228.159C110.42 229.023 110.057 230.205 110.057 231.705V287H93.3864ZM297.82 287.75C293.957 287.75 290.445 286.75 287.286 284.75C284.127 282.75 281.604 279.75 279.718 275.75C277.832 271.75 276.889 266.784 276.889 260.852C276.889 254.693 277.866 249.625 279.82 245.648C281.775 241.67 284.332 238.727 287.491 236.818C290.673 234.909 294.093 233.955 297.752 233.955C300.502 233.955 302.854 234.432 304.809 235.386C306.764 236.318 308.377 237.523 309.65 239C310.923 240.477 311.889 242.011 312.548 243.602H312.889V217.182H329.559V287H313.059V278.511H312.548C311.843 280.125 310.843 281.636 309.548 283.045C308.252 284.455 306.627 285.591 304.673 286.455C302.741 287.318 300.457 287.75 297.82 287.75ZM303.616 274.761C305.639 274.761 307.366 274.193 308.798 273.057C310.229 271.898 311.332 270.273 312.104 268.182C312.877 266.091 313.264 263.636 313.264 260.818C313.264 257.955 312.877 255.489 312.104 253.42C311.354 251.352 310.252 249.761 308.798 248.648C307.366 247.534 305.639 246.977 303.616 246.977C301.548 246.977 299.798 247.545 298.366 248.682C296.934 249.818 295.843 251.42 295.093 253.489C294.366 255.557 294.002 258 294.002 260.818C294.002 263.636 294.377 266.091 295.127 268.182C295.877 270.273 296.957 271.898 298.366 273.057C299.798 274.193 301.548 274.761 303.616 274.761ZM343.942 287V234.636H360.612V287H343.942ZM352.294 228.534C349.953 228.534 347.942 227.761 346.26 226.216C344.578 224.648 343.737 222.761 343.737 220.557C343.737 218.375 344.578 216.511 346.26 214.966C347.942 213.398 349.953 212.614 352.294 212.614C354.658 212.614 356.669 213.398 358.328 214.966C360.01 216.511 360.851 218.375 360.851 220.557C360.851 222.761 360.01 224.648 358.328 226.216C356.669 227.761 354.658 228.534 352.294 228.534ZM399.54 287.989C394.063 287.989 389.336 286.909 385.358 284.75C381.404 282.568 378.358 279.466 376.222 275.443C374.108 271.398 373.051 266.591 373.051 261.023C373.051 255.614 374.12 250.886 376.256 246.841C378.392 242.773 381.404 239.614 385.29 237.364C389.176 235.091 393.756 233.955 399.029 233.955C402.756 233.955 406.165 234.534 409.256 235.693C412.347 236.852 415.017 238.568 417.267 240.841C419.517 243.114 421.267 245.92 422.517 249.261C423.767 252.58 424.392 256.386 424.392 260.682V264.841H378.881V255.159H408.881C408.858 253.386 408.438 251.807 407.62 250.42C406.801 249.034 405.676 247.955 404.245 247.182C402.836 246.386 401.211 245.989 399.37 245.989C397.506 245.989 395.836 246.409 394.358 247.25C392.881 248.068 391.711 249.193 390.847 250.625C389.983 252.034 389.529 253.636 389.483 255.432V265.284C389.483 267.42 389.904 269.295 390.745 270.909C391.586 272.5 392.779 273.739 394.324 274.625C395.87 275.511 397.711 275.955 399.847 275.955C401.324 275.955 402.665 275.75 403.87 275.341C405.074 274.932 406.108 274.33 406.972 273.534C407.836 272.739 408.483 271.761 408.915 270.602L424.222 271.045C423.586 274.477 422.188 277.466 420.029 280.011C417.892 282.534 415.086 284.5 411.608 285.909C408.131 287.295 404.108 287.989 399.54 287.989Z" fill="#F65320"/>
<path d="M314.868 271.586L315.119 273.454L314 276.421L314.007 276.681C314.086 281.805 315.17 284.203 316.289 285.102C317.272 286.001 318.362 285.801 319.18 285.302C319.647 286.101 320.508 287 322 287C323.492 287 324.353 286.101 324.82 285.302C325.638 285.801 326.728 286.001 327.711 285.102C328.83 284.203 329.914 281.805 329.993 276.681L330 276.421L328.881 273.454L329.132 271.586H327.611L327.317 273.774L328.493 276.901C328.457 278.509 328.321 279.807 328.106 280.806C327.804 282.205 327.367 283.004 326.85 283.404C326.19 283.903 325.465 283.604 325.064 283.104L324.267 282.205L323.887 283.504C323.887 283.504 323.442 284.902 322 284.902C320.558 284.902 320.113 283.504 320.113 283.504L319.733 282.205L318.936 283.104C317.939 284.303 315.672 284.203 315.507 276.901L316.683 273.774L316.389 271.586H314.868ZM320.931 276.811C321.512 276.811 321.993 277.51 321.993 278.309C321.993 279.108 321.512 279.807 320.931 279.807C320.343 279.807 319.869 279.108 319.869 278.309C319.869 277.51 320.343 276.811 320.931 276.811ZM325.343 274.623C325.164 275.542 324.49 276.081 323.83 275.842C323.17 275.592 322.775 274.643 322.954 273.734C323.134 272.815 323.808 272.265 324.468 272.515C325.128 272.755 325.523 273.704 325.343 274.623ZM319.74 272.715C320.156 272.715 320.493 273.184 320.493 273.764C320.493 274.343 320.156 274.813 319.74 274.813C319.324 274.813 318.987 274.343 318.987 273.764C318.987 273.184 319.324 272.715 319.74 272.715ZM329.534 261.127H314.323L314.739 269.918H329.117L329.534 261.127ZM314.581 259.459H316.074C316.124 254.973 317.717 253.655 318.979 252.146C319.919 251.017 320.709 249.809 320.909 247.681H323.091C323.291 249.809 324.081 251.017 325.021 252.146C326.283 253.655 327.876 254.973 327.926 259.459H329.419C329.383 254.883 328.048 252.975 326.714 251.407C325.659 250.158 324.547 249.239 324.54 246.642V245.603H319.46V246.642C319.453 249.239 318.341 250.158 317.286 251.407C315.952 252.975 314.617 254.883 314.581 259.459ZM320.759 255.453C321.247 255.453 321.648 256.012 321.648 256.692C321.648 257.381 321.247 257.93 320.759 257.93C320.271 257.93 319.869 257.381 319.869 256.692C319.869 256.012 320.271 255.453 320.759 255.453ZM323.399 253.135C323.815 253.135 324.152 253.605 324.152 254.184C324.152 254.764 323.815 255.233 323.399 255.233C322.983 255.233 322.646 254.764 322.646 254.184C322.646 253.605 322.983 253.135 323.399 253.135ZM325.3 242.716H318.7V244.374H325.3V242.716ZM319.36 239H324.64C324.82 239 324.985 239.1 325.107 239.27C325.229 239.44 325.3 239.669 325.3 239.919V241.497H318.7V239.919C318.7 239.669 318.771 239.44 318.893 239.27C319.015 239.1 319.18 239 319.36 239Z" fill="white"/>
<path d="M110 253.4C110 248 107.6 239 102 239C96.4 239 94 248 94 253.4C94 257.9 96.1333 261.8 99.8667 262.7C98.5333 267.5 98 276.5 98 276.5V282.5C98 284.9 99.8667 287 102 287C104.133 287 106 284.9 106 282.5V276.5C106 274.7 105.467 266.9 104.133 262.7C107.867 261.8 110 257.9 110 253.4Z" fill="white"/>
<path fill-rule="evenodd" clip-rule="evenodd" d="M300.443 211.554V211.442C300.443 205.629 297.265 200.226 292.218 197.342C287.161 194.452 280.826 194.452 275.768 197.342C273.51 198.634 271.593 200.446 270.175 202.627C270.864 202.828 271.527 203.107 272.152 203.459L272.335 203.562C273.777 204.373 274.968 205.564 275.78 207.005C276.592 208.446 276.993 210.083 276.939 211.736H276.944V212.426C276.944 215.542 278.182 218.531 280.385 220.735C282.589 222.938 285.577 224.176 288.694 224.176C291.81 224.176 294.799 222.938 297.002 220.735C299.206 218.531 300.444 215.542 300.444 212.426L300.443 211.554Z" fill="#219653"/>
<path d="M300.443 211.554L299.268 211.545V211.561L300.443 211.554ZM270.175 202.627L269.19 201.987C269.09 202.14 269.027 202.315 269.007 202.498C268.987 202.68 269.01 202.864 269.073 203.036C269.137 203.208 269.24 203.362 269.374 203.487C269.509 203.612 269.67 203.704 269.846 203.755L270.175 202.627ZM276.938 211.736L275.764 211.698C275.759 211.855 275.785 212.012 275.842 212.159C275.899 212.306 275.985 212.44 276.094 212.553C276.204 212.666 276.335 212.756 276.48 212.818C276.625 212.879 276.781 212.911 276.938 212.911V211.736ZM276.943 211.736H278.118C278.118 211.424 277.994 211.125 277.774 210.905C277.554 210.685 277.255 210.561 276.943 210.561V211.736ZM301.618 211.562V211.442H299.268V211.545L301.618 211.562ZM301.618 211.442C301.618 205.202 298.209 199.412 292.801 196.322L291.636 198.362C296.322 201.04 299.268 206.057 299.268 211.442H301.618ZM292.801 196.322C287.382 193.226 280.604 193.226 275.185 196.322L276.351 198.362C281.047 195.679 286.939 195.679 291.636 198.362L292.801 196.322ZM275.185 196.322C272.765 197.707 270.71 199.649 269.19 201.987L271.159 203.268C272.475 201.243 274.255 199.562 276.351 198.362L275.185 196.322ZM269.845 203.756C270.448 203.931 271.028 204.175 271.576 204.483L272.727 202.435C272.024 202.039 271.278 201.726 270.503 201.5L269.845 203.756ZM271.576 204.483L271.758 204.586L272.91 202.538L272.728 202.435L271.576 204.483ZM271.758 204.586C272.975 205.271 273.987 206.266 274.692 207.471C275.397 208.676 275.768 210.046 275.769 211.442H278.119C278.119 209.629 277.636 207.849 276.721 206.284C275.806 204.72 274.491 203.427 272.911 202.538L271.758 204.586ZM275.769 211.442C275.769 211.527 275.767 211.613 275.765 211.698L278.113 211.774C278.117 211.663 278.119 211.553 278.119 211.442H275.769ZM276.938 212.911H276.944V210.561H276.939L276.938 212.911ZM278.119 212.426V211.736H275.769V212.426H278.119ZM283.252 221.494C281.686 220.555 280.391 219.226 279.491 217.636C278.591 216.047 278.118 214.252 278.118 212.426H275.768C275.768 214.658 276.346 216.852 277.446 218.794C278.546 220.737 280.13 222.361 282.044 223.509L283.252 221.494ZM294.134 221.494C292.491 222.48 290.61 223.001 288.694 223.001C286.777 223.001 284.896 222.48 283.252 221.494L282.044 223.509C284.053 224.714 286.351 225.351 288.693 225.351C291.036 225.351 293.334 224.714 295.343 223.509L294.134 221.494ZM299.269 212.426C299.269 214.252 298.796 216.047 297.896 217.636C296.996 219.226 295.701 220.555 294.134 221.494L295.343 223.509C297.257 222.361 298.841 220.737 299.941 218.794C301.041 216.852 301.619 214.658 301.619 212.426H299.269ZM299.269 211.632V212.426H301.619V211.632H299.269ZM299.268 211.561L299.269 211.632H301.619V211.545L299.268 211.561Z" fill="#219653"/>
<path d="M304.24 227.782C304.822 227.961 305.37 227.555 305.463 226.875C305.557 226.195 305.159 225.499 304.576 225.321L304.24 227.782ZM282.73 204.045C282.514 203.369 281.894 202.976 281.345 203.168C280.796 203.359 280.526 204.063 280.742 204.739L282.73 204.045ZM304.576 225.321L303.993 225.141L303.656 227.603L304.24 227.782L304.576 225.321ZM291.008 217.41L290.336 216.753L289.082 218.656L289.755 219.314L291.008 217.41ZM282.981 204.829L282.73 204.045L280.742 204.739L280.993 205.523L282.981 204.829ZM290.336 216.753C286.948 213.438 284.423 209.344 282.981 204.829L280.993 205.523C282.594 210.528 285.382 215.04 289.082 218.656L290.336 216.753ZM303.993 225.141C299.118 223.644 294.669 220.987 291.008 217.41L289.755 219.314C293.709 223.177 298.478 226.013 303.656 227.603L303.993 225.141Z" fill="#F2994A"/>
</svg>
